<svg width="34" height="34" viewBox="0 0 34 34" fill="none" xmlns="http://www.w3.org/2000/svg">
<path d="M28.4425 24.5539L26.5687 23.3084L27.8142 21.4346L29.688 22.6801C29.9365 22.8452 30.1092 23.1024 30.1681 23.3948C30.227 23.6873 30.1673 23.9913 30.0022 24.2397C29.837 24.4882 29.5799 24.6609 29.2874 24.7198C28.9949 24.7788 28.691 24.7191 28.4425 24.5539ZM7.20218 7.73396C6.95369 7.56879 6.64977 7.5091 6.35728 7.56802C6.06479 7.62693 5.80768 7.79963 5.64251 8.04811C5.47735 8.2966 5.41766 8.60052 5.47657 8.89301C5.53549 9.1855 5.70818 9.44261 5.95667 9.60778L7.83049 10.8533L9.076 8.97947L7.20218 7.73396ZM23.4549 27.9929C23.2447 28.3092 23.0205 28.6109 22.7853 28.8987L24.706 30.1754C24.9545 30.3405 25.1272 30.5976 25.1861 30.8901C25.245 31.1826 25.1853 31.4865 25.0201 31.735C24.855 31.9835 24.5979 32.1562 24.3054 32.2151C24.0129 32.274 23.709 32.2143 23.4605 32.0492L21.1557 30.5172C19.2934 32.0222 16.9995 32.8937 14.6078 33.005C12.216 33.1164 9.8511 32.4617 7.85706 31.1363C5.86302 29.8109 4.34386 27.8838 3.52057 25.6355C2.69728 23.3871 2.6128 20.9347 3.27943 18.635L0.974626 17.1031C0.726142 16.9379 0.553446 16.6808 0.49453 16.3883C0.435615 16.0958 0.495306 15.7919 0.660471 15.5434C0.825635 15.2949 1.08275 15.1222 1.37524 15.0633C1.66773 15.0044 1.97165 15.0641 2.22014 15.2292L4.1408 16.5059C4.31508 16.1776 4.50653 15.854 4.71671 15.5378L5.33947 14.6009L3.46565 13.3554C3.21716 13.1903 3.04447 12.9331 2.98555 12.6407C2.92664 12.3482 2.98633 12.0442 3.15149 11.7958C3.31666 11.5473 3.57377 11.3746 3.86626 11.3157C4.15875 11.2567 4.46267 11.3164 4.71116 11.4816L6.58498 12.7271L7.83049 10.8533L26.5687 23.3084L25.3232 25.1822L27.197 26.4277C27.4455 26.5929 27.6182 26.85 27.6771 27.1425C27.736 27.435 27.6763 27.7389 27.5112 27.9874C27.346 28.2359 27.0889 28.4086 26.7964 28.4675C26.5039 28.5264 26.2 28.4667 25.9515 28.3015L24.0777 27.056L23.4549 27.9929ZM16.2682 20.5143C16.4334 20.2658 16.4931 19.9619 16.4342 19.6694C16.3753 19.3769 16.2026 19.1198 15.9541 18.9547C15.7056 18.7895 15.4017 18.7298 15.1092 18.7887C14.8167 18.8476 14.5596 19.0203 14.3944 19.2688L9.41238 26.7641C9.24721 27.0126 9.18752 27.3165 9.24644 27.609C9.30535 27.9015 9.47805 28.1586 9.72653 28.3238C9.97501 28.4889 10.2789 28.5486 10.5714 28.4897C10.8639 28.4308 11.121 28.2581 11.2862 28.0096L16.2682 20.5143ZM15.2808 5.19281C12.8623 5.74913 10.6966 7.09182 9.12284 9.01061L27.7674 21.4034C28.9272 19.2095 29.3268 16.6929 28.9035 14.2477L32.7044 13.4831C32.8493 13.4539 32.987 13.3965 33.1097 13.314C33.2324 13.2316 33.3377 13.1258 33.4195 13.0027C33.5014 12.8796 33.5581 12.7416 33.5866 12.5966C33.6151 12.4515 33.6147 12.3023 33.5856 12.1574C33.5564 12.0124 33.4989 11.8747 33.4165 11.752C33.3341 11.6293 33.2283 11.524 33.1052 11.4422C32.9821 11.3604 32.8441 11.3036 32.699 11.2751C32.554 11.2466 32.4047 11.247 32.2598 11.2762L28.3033 12.0741C27.4678 9.91023 25.9818 8.05873 24.05 6.77469C22.1182 5.49066 19.8358 4.8373 17.5172 4.90464L16.7212 0.947764C16.6622 0.655107 16.4894 0.397854 16.2408 0.232598C15.9922 0.0673407 15.6881 0.00761731 15.3954 0.0665656C15.1028 0.125514 14.8455 0.298305 14.6803 0.546928C14.515 0.79555 14.4553 1.09964 14.5142 1.39229L15.2808 5.19281Z" fill="#D94B3B"/>
</svg>
